<svg xmlns="http://www.w3.org/2000/svg" version="1.0" viewBox="0 0 177 177"><path fill="#F33" stroke="#F33" stroke-width="1.2" d="M75.3 15.5c-26.9 7.3-41.6 35.6-32.8 63.2 3.6 11.5 8.8 19.6 19 29.8 9.3 9.4 17.2 14.4 28.3 18 5.2 1.7 5.2 1.7 7.1-.6 1.5-1.9 2.9-2.3 8.7-2.5l6.9-.2 4.6-5.1c9.4-10.5 16.8-27.2 19-42.8 4.1-29-11.6-54.3-37.2-60.2-6.2-1.5-17.4-1.2-23.6.4zm33 11.2c5.5 3.8 8.7 10.1 8.7 17 0 4.7-.3 5.5-2.4 6.4-3.1 1.5-4.9.4-9.5-5.7-2.6-3.4-5-5.3-8.1-6.5-4.6-1.7-8-5-8-7.9 0-2.5 3.7-6.8 6.3-7.2 3.7-.6 8.9.9 13 3.9zm-4.8 104.2c-2.4.5-3.3 1.4-4.4 4.8-1.8 5.2-.3 7.8 3.8 6.8 1.4-.4 3.5-.8 4.7-.9 3-.4 4.4-1.5 4.4-3.4 0-2-3.7-8.2-4.7-8.1-.5.1-2.1.4-3.8.8z"/><path fill="#F96" stroke="#F96" stroke-width="1.2" d="M95 23.7c-2.8 1.1-5 3.6-5 5.8 0 3.2 2.3 5.6 7.1 7.5 3 1.2 5.7 3.3 8.4 6.8 4.1 5.3 7.8 7.3 9.7 5.4 2.1-2.1 1.1-11-1.7-15.7-3.7-6.4-13.7-11.7-18.5-9.8z"/><path fill="#C00" stroke="#C00" stroke-width="1.2" d="M100.3 124.1c-3.7 1.1-5.2 4.4-3.1 6.5 1.2 1.3 2.2 1.3 6.9.1 5.6-1.5 7.2-3.5 4.9-6.2-1.4-1.7-3.9-1.8-8.7-.4z"/><path fill="#6CF" stroke="#6CF" stroke-width="1.2" d="M104.9 142.7c-1.8.4-2.9 3.2-2.9 7.1 0 3.4 5.2 8.2 8.8 8.2 1.6 0 5.5-.9 8.7-2 3.2-1.1 6.9-2 8.2-2 3.6 0 7.7 2.5 11.1 6.7 2.3 2.9 3.3 3.5 4.2 2.7 1.6-1.6.2-4.1-4.9-8.7-5.4-4.9-9.7-5.6-18.1-2.8-8 2.5-10.3 2.6-12.5.4-1.3-1.3-1.6-2.7-1.1-6 .3-2.4.5-4.2.3-4.2-.1.1-.9.3-1.8.6z"/></svg>
